# xmcd
# 
# Track frame offsets:
#     150
#     44537
#     72480
#     110820
#     135472
#     197785
#     226355
# 
# Disc length: 3604
# 
# Revision: 1
# Processed by: cddbd v1.5.2PL0 Copyright (c) Steve Scherf et al.
# Submitted via: BonkEnc v1.0.8
# 
DISCID=680e1207
DTITLE=Gary Peacock - Eastward
DYEAR=1970
DGENRE=Contemporary Jazz
TTITLE0=Lessoning
TTITLE1=Nanshi
TTITLE2=Changing
TTITLE3=One Up
TTITLE4=Eastward
TTITLE5=Little Abi
TTITLE6=Moor
EXTD=
EXTT0=
EXTT1=
EXTT2=
EXTT3=
EXTT4=
EXTT5=
EXTT6=
PLAYORDER=
